Coordinates
version=1
nRows=49
nColumns=12
inDegrees=yes

Units are S.I. units (second, meters, Newtons, ...)
Angles are in degrees

endheader
time	SC_y	SC_z	SC_x	AC_y	AC_z	AC_x	GH_y	GH_z	GH_yy	EL_x	PS_y
       0.0              -36.23           3.44          79.23          32.18        -0.5746          10.08         -92.74        -0.6722          110.5          53.47          71.94
   0.04248              -36.22          3.442          79.22          32.18        -0.5772          10.08         -92.72        -0.6723          110.5          53.47          71.94
   0.08495              -36.22          3.445          79.21          32.19        -0.5799          10.08         -92.69        -0.6725          110.5          53.46          71.94
    0.1274              -36.22          3.448           79.2          32.19        -0.5829          10.08         -92.66        -0.6726          110.5          53.46          71.94
    0.1699              -36.21          3.452          79.18           32.2         -0.586          10.08         -92.63        -0.6728          110.5          53.46          71.94
    0.2124              -36.21          3.455          79.17           32.2        -0.5893          10.08          -92.6        -0.6729          110.5          53.46          71.93
    0.2549              -36.21          3.459          79.16          32.21        -0.5928          10.08         -92.57        -0.6731          110.4          53.46          71.93
    0.2973               -36.2          3.463          79.14          32.21        -0.5966          10.08         -92.53        -0.6732          110.4          53.46          71.93
    0.3398               -36.2          3.467          79.12          32.22        -0.6007          10.07          -92.5        -0.6734          110.4          53.46          71.93
    0.3823               -36.2          3.472          79.11          32.22         -0.605          10.07         -92.45        -0.6736          110.4          53.46          71.93
    0.4248              -36.19          3.477          79.09          32.23        -0.6097          10.07         -92.41        -0.6739          110.4          53.45          71.93
    0.4672              -36.19          3.482          79.07          32.24        -0.6148          10.07         -92.36        -0.6741          110.4          53.45          71.93
    0.5097              -36.18          3.488          79.04          32.25        -0.6202          10.07         -92.31        -0.6743          110.3          53.45          71.92
    0.5522              -36.17          3.494          79.02          32.25         -0.626          10.06         -92.26        -0.6746          110.3          53.45          71.92
    0.5947              -36.17          3.501          78.99          32.26        -0.6324          10.06          -92.2        -0.6749          110.3          53.45          71.92
    0.6372              -36.16          3.508          78.96          32.27        -0.6393          10.06         -92.13        -0.6752          110.2          53.44          71.92
    0.6796              -36.15          3.516          78.93          32.28        -0.6467          10.05         -92.06        -0.6756          110.2          53.44          71.92
    0.7221              -36.15          3.525           78.9           32.3        -0.6549          10.05         -91.98         -0.676          110.2          53.44          71.91
    0.7646              -36.14          3.534          78.86          32.31        -0.6638          10.05          -91.9        -0.6764          110.1          53.44          71.91
    0.8071              -36.13          3.544          78.82          32.32        -0.6735          10.04         -91.81        -0.6768          110.1          53.43          71.91
    0.8495              -36.12          3.556          78.78          32.34        -0.6842          10.04         -91.71        -0.6773          110.1          53.43          71.91
     0.892               -36.1          3.568          78.73          32.35         -0.696          10.03          -91.6        -0.6779          110.0          53.43           71.9
    0.9345              -36.09          3.582          78.67          32.37         -0.709          10.03         -91.47        -0.6785          110.0          53.42           71.9
     0.977              -36.08          3.597          78.61          32.39        -0.7234          10.02         -91.34        -0.6791          109.9          53.42          71.89
     1.019              -36.06          3.614          78.55          32.41        -0.7394          10.01         -91.19        -0.6799          109.8          53.41          71.89
     1.062              -36.04          3.633          78.47          32.44        -0.7573          10.01         -91.02        -0.6807          109.7          53.41          71.88
     1.104              -36.02          3.654          78.39          32.47        -0.7773          9.999         -90.83        -0.6816          109.7           53.4          71.88
     1.147               -36.0          3.678          78.29           32.5        -0.7998          9.989         -90.62        -0.6827          109.6          53.39          71.87
     1.189              -35.97          3.705          78.19          32.54        -0.8252          9.978         -90.38        -0.6839          109.5          53.38          71.86
     1.232              -35.94          3.735          78.07          32.58        -0.8541          9.966          -90.1        -0.6852          109.3          53.37          71.86
     1.274              -35.91           3.77          77.93          32.62        -0.8871          9.952         -89.79        -0.6867          109.2          53.36          71.85
     1.317              -35.87           3.81          77.77          32.68        -0.9249          9.936         -89.43        -0.6885          109.0          53.35          71.83
     1.359              -35.83          3.857          77.59          32.74        -0.9686          9.917         -89.02        -0.6905          108.9          53.33          71.82
     1.402              -35.78           3.91          77.38          32.81         -1.019          9.896         -88.54        -0.6929          108.6          53.32          71.81
     1.444              -35.72          3.973          77.13           32.9         -1.079          9.871         -87.98        -0.6956          108.4           53.3          71.79
     1.487              -35.65          4.047          76.84          32.99         -1.149          9.841         -87.32        -0.6989          108.1          53.27          71.77
     1.529              -35.56          4.135          76.49          33.11         -1.232          9.806         -86.53        -0.7027          107.7          53.25          71.74
     1.572              -35.46          4.241          76.08          33.25         -1.332          9.764         -85.59        -0.7073          107.3          53.21          71.71
     1.614              -35.34          4.369          75.58          33.43         -1.452          9.712         -84.45        -0.7129          106.8          53.17          71.68
     1.657              -35.19          4.525          74.96          33.63           -1.6           9.65         -83.06        -0.7198          106.2          53.12          71.64
     1.699              -35.01          4.717          74.21          33.89         -1.782          9.573         -81.34        -0.7282          105.4          53.06          71.58
     1.742              -34.78          4.957          73.26          34.21         -2.008          9.477          -79.2        -0.7387          104.4          52.99          71.51
     1.784              -34.49           5.26          72.07          34.62         -2.294          9.356          -76.5         -0.752          103.2          52.89          71.43
     1.827              -34.12          5.644          70.56          35.13         -2.657          9.202         -73.07        -0.7688          101.7          52.77          71.32
     1.869              -33.65          6.137          68.62          35.79         -3.122          9.005         -68.68        -0.7904          99.72          52.61          71.19
     1.911              -33.05          6.768          66.14          36.64         -3.719          8.752         -63.05        -0.8181          97.19          52.41          71.01
     1.954              -32.28          7.575          62.96          37.72         -4.481          8.429         -55.85        -0.8534          93.96          52.16          70.78
     1.996              -31.31          8.589          58.97          39.07         -5.439          8.022          -46.8        -0.8979          89.89          51.84           70.5
     2.039              -30.13          9.826          54.11          40.73         -6.607          7.527         -35.77         -0.952          84.94          51.44          70.16
